<svg width="200" height="151" viewBox="0 0 200 151" fill="none" xmlns="http://www.w3.org/2000/svg">
<path d="M0.476562 78.3438L186.805 5.6875" stroke="#FF3131" strokeWidth="2.34375"/>
<path d="M198.523 1L136.414 95.9219" stroke="#FF3131" strokeWidth="2.34375"/>
<path d="M13.3672 78.3438L141.102 101.781" stroke="#FF3131" strokeWidth="2.34375"/>
<path d="M27.4844 125.555H30.3672C31.3672 125.555 32.1289 125.773 32.6523 126.211C33.1836 126.641 33.4492 127.301 33.4492 128.191C33.4492 128.52 33.3984 128.84 33.2969 129.152C33.1953 129.465 33.0273 129.75 32.793 130.008C32.5664 130.266 32.2578 130.473 31.8672 130.629C31.4766 130.785 31.0117 130.863 30.4727 130.863H29.4414V133.875H27.4844V125.555ZM29.4414 127.312V129.117H30.3203C30.6641 129.117 30.9375 129.047 31.1406 128.906C31.3516 128.758 31.457 128.527 31.457 128.215C31.457 127.918 31.3672 127.695 31.1875 127.547C31.0078 127.391 30.7227 127.312 30.332 127.312H29.4414ZM41.4456 125.555H43.6136L45.2776 128.391L46.9534 125.555H49.098L46.2503 130.242V133.875H44.2933V130.254L41.4456 125.555ZM57.6215 125.555H63.7973V127.336H61.6879V133.875H59.7309V127.336H57.6215V125.555ZM72.9939 125.555H74.9509V128.684H78.1853V125.555H80.1423V133.875H78.1853V130.535H74.9509V133.875H72.9939V125.555ZM92.7326 125.508H92.885L96.8459 133.875H94.7834L94.2912 132.797H91.3147L90.8225 133.875H88.7834L92.7326 125.508ZM92.8029 129.527L92.0295 131.227H93.5764L92.8029 129.527ZM109.151 125.426C109.456 125.426 109.796 125.465 110.171 125.543C110.546 125.621 110.897 125.75 111.225 125.93C111.561 126.102 111.827 126.285 112.022 126.48L111.096 127.992C110.823 127.773 110.514 127.598 110.171 127.465C109.827 127.324 109.487 127.254 109.151 127.254C108.854 127.254 108.569 127.301 108.296 127.395C108.022 127.48 107.776 127.621 107.557 127.816C107.339 128.004 107.163 128.254 107.03 128.566C106.905 128.871 106.843 129.234 106.843 129.656C106.843 130.211 106.932 130.676 107.112 131.051C107.3 131.418 107.557 131.699 107.886 131.895C108.214 132.082 108.593 132.176 109.022 132.176C109.593 132.176 110.026 132.047 110.323 131.789V130.559H108.999V128.988H112.175V132.492C112.018 132.727 111.792 132.961 111.495 133.195C111.198 133.422 110.819 133.613 110.358 133.77C109.897 133.926 109.436 134.004 108.975 134.004C108.483 134.004 107.987 133.934 107.487 133.793C106.995 133.652 106.55 133.414 106.151 133.078C105.753 132.734 105.456 132.352 105.261 131.93C105.065 131.5 104.936 131.105 104.874 130.746C104.819 130.379 104.792 130.051 104.792 129.762C104.792 129.137 104.889 128.559 105.085 128.027C105.28 127.488 105.565 127.027 105.94 126.645C106.315 126.254 106.776 125.953 107.323 125.742C107.87 125.531 108.479 125.426 109.151 125.426ZM125.286 125.426C125.849 125.426 126.376 125.531 126.868 125.742C127.368 125.953 127.798 126.25 128.157 126.633C128.524 127.016 128.806 127.473 129.001 128.004C129.204 128.535 129.306 129.102 129.306 129.703C129.306 130.336 129.204 130.922 129.001 131.461C128.806 131.992 128.528 132.449 128.169 132.832C127.809 133.207 127.38 133.496 126.88 133.699C126.388 133.902 125.856 134.004 125.286 134.004C124.708 134.004 124.169 133.902 123.669 133.699C123.177 133.496 122.751 133.207 122.392 132.832C122.032 132.449 121.751 131.992 121.548 131.461C121.352 130.922 121.255 130.336 121.255 129.703C121.255 129.094 121.352 128.527 121.548 128.004C121.743 127.473 122.02 127.016 122.38 126.633C122.739 126.25 123.169 125.953 123.669 125.742C124.169 125.531 124.708 125.426 125.286 125.426ZM125.263 127.254C124.903 127.254 124.575 127.352 124.278 127.547C123.989 127.742 123.759 128.02 123.587 128.379C123.415 128.738 123.329 129.184 123.329 129.715C123.329 130.223 123.411 130.656 123.575 131.016C123.739 131.375 123.97 131.66 124.267 131.871C124.563 132.074 124.903 132.176 125.286 132.176C125.677 132.176 126.017 132.078 126.306 131.883C126.595 131.68 126.821 131.402 126.985 131.051C127.149 130.691 127.231 130.254 127.231 129.738C127.231 129.215 127.142 128.77 126.962 128.402C126.79 128.035 126.552 127.754 126.247 127.559C125.95 127.355 125.622 127.254 125.263 127.254ZM138.56 125.555H141.279C141.755 125.555 142.189 125.605 142.579 125.707C142.97 125.809 143.306 125.965 143.587 126.176C143.868 126.387 144.083 126.656 144.232 126.984C144.38 127.312 144.454 127.691 144.454 128.121C144.454 128.645 144.298 129.121 143.986 129.551C143.673 129.973 143.282 130.273 142.814 130.453L144.853 133.875H142.673L140.857 130.734H140.493V133.875H138.56V125.555ZM140.493 127.312V129.117H141.325C141.693 129.117 141.974 129.051 142.169 128.918C142.365 128.777 142.462 128.539 142.462 128.203C142.462 127.914 142.368 127.695 142.181 127.547C141.993 127.391 141.732 127.312 141.396 127.312H140.493ZM156.765 125.508H156.917L160.878 133.875H158.816L158.324 132.797H155.347L154.855 133.875H152.816L156.765 125.508ZM156.835 129.527L156.062 131.227H157.609L156.835 129.527ZM172.016 125.426C172.469 125.426 172.906 125.523 173.328 125.719C173.758 125.906 174.102 126.156 174.359 126.469L173.399 127.875C172.977 127.453 172.527 127.242 172.051 127.242C171.809 127.242 171.617 127.297 171.477 127.406C171.344 127.508 171.277 127.637 171.277 127.793C171.277 127.879 171.297 127.969 171.336 128.062C171.383 128.148 171.453 128.227 171.547 128.297C171.641 128.367 171.797 128.469 172.016 128.602L172.977 129.176C173.508 129.496 173.895 129.844 174.137 130.219C174.387 130.586 174.512 131.031 174.512 131.555C174.512 131.844 174.449 132.133 174.324 132.422C174.207 132.711 174.027 132.977 173.785 133.219C173.551 133.453 173.25 133.645 172.883 133.793C172.516 133.934 172.106 134.004 171.652 134.004C171.379 134.004 171.078 133.973 170.75 133.91C170.422 133.855 170.121 133.766 169.848 133.641C169.582 133.508 169.379 133.379 169.238 133.254V131.355H169.379C169.996 131.91 170.66 132.187 171.371 132.187C171.551 132.187 171.727 132.164 171.899 132.117C172.078 132.07 172.215 131.992 172.309 131.883C172.41 131.766 172.461 131.641 172.461 131.508C172.461 131.359 172.414 131.219 172.32 131.086C172.227 130.953 171.988 130.781 171.606 130.57L170.996 130.23C170.332 129.855 169.871 129.477 169.613 129.094C169.356 128.703 169.227 128.27 169.227 127.793C169.227 127.496 169.285 127.207 169.402 126.926C169.527 126.637 169.707 126.379 169.942 126.152C170.184 125.926 170.481 125.75 170.832 125.625C171.184 125.492 171.578 125.426 172.016 125.426Z" fill="#FF3131"/>
<path opacity="0.5" d="M51.1523 144.57H52.4602L53.6273 147.116L54.7453 144.57H56.0391L53.6555 149.605H53.55L51.1523 144.57ZM58.4784 144.542H58.5698L60.9463 149.562H59.7088L59.4135 148.916H57.6276L57.3323 149.562H56.1088L58.4784 144.542ZM58.5205 146.954L58.0565 147.973H58.9846L58.5205 146.954ZM63.9022 144.493C64.1741 144.493 64.4366 144.552 64.6897 144.669C64.9475 144.781 65.1538 144.931 65.3084 145.119L64.7319 145.962C64.4788 145.709 64.2092 145.583 63.9233 145.583C63.778 145.583 63.6631 145.616 63.5788 145.681C63.4991 145.742 63.4592 145.82 63.4592 145.913C63.4592 145.965 63.4709 146.019 63.4944 146.075C63.5225 146.127 63.5647 146.173 63.6209 146.216C63.6772 146.258 63.7709 146.319 63.9022 146.398L64.4788 146.743C64.7975 146.935 65.0295 147.144 65.1749 147.369C65.3249 147.589 65.3999 147.856 65.3999 148.17C65.3999 148.344 65.3624 148.517 65.2874 148.691C65.217 148.864 65.1092 149.023 64.9639 149.169C64.8233 149.309 64.6428 149.424 64.4225 149.513C64.2022 149.598 63.9561 149.64 63.6842 149.64C63.5202 149.64 63.3397 149.621 63.1428 149.584C62.9459 149.551 62.7655 149.497 62.6014 149.422C62.442 149.342 62.3202 149.265 62.2358 149.19V148.051H62.3202C62.6905 148.384 63.0889 148.55 63.5155 148.55C63.6233 148.55 63.7288 148.536 63.8319 148.508C63.9397 148.48 64.0217 148.433 64.078 148.367C64.1389 148.297 64.1694 148.222 64.1694 148.142C64.1694 148.053 64.1413 147.969 64.085 147.889C64.0288 147.809 63.8858 147.706 63.6561 147.58L63.2905 147.376C62.892 147.151 62.6155 146.923 62.4608 146.694C62.3061 146.459 62.2288 146.199 62.2288 145.913C62.2288 145.735 62.2639 145.562 62.3342 145.393C62.4092 145.22 62.517 145.065 62.6577 144.929C62.803 144.793 62.9811 144.687 63.192 144.612C63.403 144.533 63.6397 144.493 63.9022 144.493ZM66.9155 144.57H70.6209V145.639H69.3553V149.562H68.1811V145.639H66.9155V144.57ZM74.5983 144.493C74.7811 144.493 74.985 144.516 75.21 144.563C75.435 144.61 75.6459 144.687 75.8428 144.795C76.0444 144.898 76.2037 145.009 76.3209 145.126L75.7655 146.033C75.6014 145.902 75.4162 145.796 75.21 145.716C75.0037 145.632 74.7998 145.59 74.5983 145.59C74.4201 145.59 74.249 145.618 74.085 145.674C73.9209 145.726 73.7733 145.81 73.642 145.927C73.5108 146.04 73.4053 146.19 73.3256 146.377C73.2506 146.56 73.2131 146.778 73.2131 147.031C73.2131 147.364 73.267 147.643 73.3748 147.868C73.4873 148.088 73.642 148.257 73.8389 148.374C74.0358 148.487 74.2631 148.543 74.5209 148.543C74.8631 148.543 75.1233 148.466 75.3014 148.311V147.573H74.5069V146.63H76.4123V148.733C76.3186 148.873 76.1826 149.014 76.0045 149.155C75.8264 149.291 75.599 149.405 75.3225 149.499C75.0459 149.593 74.7694 149.64 74.4928 149.64C74.1975 149.64 73.8998 149.598 73.5998 149.513C73.3045 149.429 73.0373 149.286 72.7983 149.084C72.5592 148.878 72.3811 148.648 72.2639 148.395C72.1467 148.137 72.0694 147.901 72.0319 147.685C71.999 147.465 71.9826 147.268 71.9826 147.095C71.9826 146.72 72.0412 146.373 72.1584 146.054C72.2756 145.73 72.4467 145.454 72.6717 145.224C72.8967 144.99 73.1733 144.809 73.5014 144.683C73.8295 144.556 74.1951 144.493 74.5983 144.493ZM80.5526 144.493C80.8901 144.493 81.2065 144.556 81.5019 144.683C81.8019 144.809 82.0597 144.987 82.2753 145.217C82.4956 145.447 82.6644 145.721 82.7815 146.04C82.9034 146.359 82.9644 146.698 82.9644 147.059C82.9644 147.439 82.9034 147.791 82.7815 148.114C82.6644 148.433 82.4979 148.707 82.2823 148.937C82.0667 149.162 81.8089 149.335 81.5089 149.457C81.2136 149.579 80.8948 149.64 80.5526 149.64C80.2058 149.64 79.8823 149.579 79.5823 149.457C79.287 149.335 79.0315 149.162 78.8159 148.937C78.6003 148.707 78.4315 148.433 78.3097 148.114C78.1925 147.791 78.1339 147.439 78.1339 147.059C78.1339 146.694 78.1925 146.354 78.3097 146.04C78.4269 145.721 78.5933 145.447 78.8089 145.217C79.0245 144.987 79.2823 144.809 79.5823 144.683C79.8823 144.556 80.2058 144.493 80.5526 144.493ZM80.5386 145.59C80.3229 145.59 80.1261 145.648 79.9479 145.766C79.7745 145.883 79.6362 146.049 79.5331 146.265C79.43 146.48 79.3784 146.748 79.3784 147.066C79.3784 147.371 79.4276 147.631 79.5261 147.847C79.6245 148.062 79.7628 148.234 79.9409 148.36C80.119 148.482 80.3229 148.543 80.5526 148.543C80.787 148.543 80.9909 148.484 81.1644 148.367C81.3378 148.245 81.4737 148.079 81.5722 147.868C81.6706 147.652 81.7198 147.39 81.7198 147.08C81.7198 146.766 81.6659 146.499 81.5581 146.279C81.455 146.059 81.312 145.89 81.1292 145.773C80.9511 145.651 80.7542 145.59 80.5386 145.59ZM84.7903 144.57H87.7786V145.639H85.9646V146.518H87.6521V147.587H85.9646V148.494H87.7786V149.562H84.7903V144.57ZM89.6713 144.57H91.1971C91.6189 144.57 92.001 144.624 92.3432 144.732C92.6854 144.84 92.9736 144.997 93.208 145.203C93.4424 145.409 93.6205 145.667 93.7424 145.977C93.8643 146.286 93.9252 146.633 93.9252 147.017C93.9252 147.448 93.8619 147.826 93.7354 148.149C93.6088 148.473 93.426 148.74 93.1869 148.951C92.9479 149.157 92.6572 149.312 92.315 149.415C91.9775 149.513 91.5955 149.562 91.1689 149.562H89.6713V144.57ZM90.8455 145.639V148.494H91.1971C91.5486 148.494 91.8346 148.44 92.0549 148.332C92.2752 148.22 92.4369 148.055 92.54 147.84C92.6432 147.62 92.6947 147.355 92.6947 147.045C92.6947 146.755 92.6408 146.504 92.533 146.293C92.4299 146.082 92.2658 145.92 92.0408 145.808C91.8158 145.695 91.5369 145.639 91.2041 145.639H90.8455ZM100.214 144.493C100.566 144.493 100.878 144.552 101.15 144.669C101.421 144.786 101.637 144.938 101.796 145.126L101.22 145.991C100.92 145.723 100.592 145.59 100.236 145.59C99.8558 145.59 99.5535 145.719 99.3285 145.977C99.1082 146.23 98.998 146.572 98.998 147.003C98.998 147.477 99.1222 147.852 99.3707 148.128C99.6238 148.405 99.966 148.543 100.397 148.543C100.514 148.543 100.648 148.522 100.798 148.48C100.948 148.437 101.093 148.37 101.234 148.276C101.375 148.182 101.489 148.088 101.578 147.995H101.649V149.141C101.574 149.216 101.466 149.293 101.325 149.373C101.185 149.448 101.018 149.511 100.826 149.562C100.639 149.614 100.428 149.64 100.193 149.64C99.8418 149.64 99.5136 149.581 99.209 149.464C98.909 149.342 98.6511 149.169 98.4355 148.944C98.2246 148.719 98.0605 148.447 97.9433 148.128C97.8261 147.809 97.7676 147.46 97.7676 147.08C97.7676 146.687 97.8308 146.328 97.9574 146.005C98.084 145.677 98.2574 145.402 98.4777 145.182C98.7027 144.957 98.9652 144.786 99.2652 144.669C99.5652 144.552 99.8816 144.493 100.214 144.493ZM105.38 144.542H105.471L107.848 149.562H106.611L106.315 148.916H104.529L104.234 149.562H103.011L105.38 144.542ZM105.422 146.954L104.958 147.973H105.886L105.422 146.954ZM109.305 144.57H110.479V148.494H112.089V149.562H109.305V144.57ZM115.887 144.493C116.239 144.493 116.551 144.552 116.822 144.669C117.094 144.786 117.31 144.938 117.469 145.126L116.893 145.991C116.593 145.723 116.265 145.59 115.908 145.59C115.529 145.59 115.226 145.719 115.001 145.977C114.781 146.23 114.671 146.572 114.671 147.003C114.671 147.477 114.795 147.852 115.043 148.128C115.297 148.405 115.639 148.543 116.07 148.543C116.187 148.543 116.321 148.522 116.471 148.48C116.621 148.437 116.766 148.37 116.907 148.276C117.047 148.182 117.162 148.088 117.251 147.995H117.322V149.141C117.247 149.216 117.139 149.293 116.998 149.373C116.858 149.448 116.691 149.511 116.499 149.562C116.311 149.614 116.101 149.64 115.866 149.64C115.515 149.64 115.186 149.581 114.882 149.464C114.582 149.342 114.324 149.169 114.108 148.944C113.897 148.719 113.733 148.447 113.616 148.128C113.499 147.809 113.44 147.46 113.44 147.08C113.44 146.687 113.504 146.328 113.63 146.005C113.757 145.677 113.93 145.402 114.151 145.182C114.376 144.957 114.638 144.786 114.938 144.669C115.238 144.552 115.554 144.493 115.887 144.493ZM119.114 144.57H120.288V146.848C120.288 147.177 120.3 147.448 120.323 147.664C120.351 147.875 120.408 148.046 120.492 148.177C120.562 148.29 120.663 148.379 120.794 148.445C120.926 148.51 121.073 148.543 121.237 148.543C121.397 148.543 121.54 148.51 121.666 148.445C121.798 148.379 121.898 148.295 121.969 148.191C122.034 148.098 122.086 147.966 122.123 147.798C122.161 147.629 122.18 147.378 122.18 147.045V144.57H123.354V147.27C123.354 148.02 123.183 148.599 122.84 149.007C122.484 149.429 121.938 149.64 121.202 149.64C120.471 149.64 119.932 149.429 119.585 149.007C119.412 148.796 119.29 148.559 119.219 148.297C119.149 148.03 119.114 147.687 119.114 147.27V144.57ZM125.307 144.57H126.482V148.494H128.092V149.562H125.307V144.57ZM131.9 144.542H131.991L134.368 149.562H133.13L132.835 148.916H131.049L130.754 149.562H129.53L131.9 144.542ZM131.942 146.954L131.478 147.973H132.406L131.942 146.954ZM135.023 144.57H138.729V145.639H137.463V149.562H136.289V145.639H135.023V144.57ZM142.509 144.493C142.847 144.493 143.163 144.556 143.458 144.683C143.758 144.809 144.016 144.987 144.232 145.217C144.452 145.447 144.621 145.721 144.738 146.04C144.86 146.359 144.921 146.698 144.921 147.059C144.921 147.439 144.86 147.791 144.738 148.114C144.621 148.433 144.455 148.707 144.239 148.937C144.023 149.162 143.765 149.335 143.465 149.457C143.17 149.579 142.851 149.64 142.509 149.64C142.162 149.64 141.839 149.579 141.539 149.457C141.244 149.335 140.988 149.162 140.772 148.937C140.557 148.707 140.388 148.433 140.266 148.114C140.149 147.791 140.09 147.439 140.09 147.059C140.09 146.694 140.149 146.354 140.266 146.04C140.383 145.721 140.55 145.447 140.765 145.217C140.981 144.987 141.239 144.809 141.539 144.683C141.839 144.556 142.162 144.493 142.509 144.493ZM142.495 145.59C142.28 145.59 142.083 145.648 141.905 145.766C141.731 145.883 141.593 146.049 141.49 146.265C141.387 146.48 141.335 146.748 141.335 147.066C141.335 147.371 141.384 147.631 141.483 147.847C141.581 148.062 141.719 148.234 141.897 148.36C142.076 148.482 142.28 148.543 142.509 148.543C142.744 148.543 142.947 148.484 143.121 148.367C143.294 148.245 143.43 148.079 143.529 147.868C143.627 147.652 143.676 147.39 143.676 147.08C143.676 146.766 143.622 146.499 143.515 146.279C143.412 146.059 143.269 145.89 143.086 145.773C142.908 145.651 142.711 145.59 142.495 145.59ZM146.747 144.57H148.378C148.664 144.57 148.924 144.601 149.159 144.662C149.393 144.723 149.595 144.816 149.763 144.943C149.932 145.07 150.061 145.231 150.15 145.428C150.239 145.625 150.284 145.852 150.284 146.11C150.284 146.424 150.19 146.71 150.002 146.968C149.815 147.221 149.581 147.402 149.299 147.509L150.523 149.562H149.215L148.125 147.678H147.907V149.562H146.747V144.57ZM147.907 145.625V146.708H148.406C148.627 146.708 148.795 146.668 148.913 146.588C149.03 146.504 149.088 146.361 149.088 146.159C149.088 145.986 149.032 145.855 148.92 145.766C148.807 145.672 148.65 145.625 148.448 145.625H147.907Z" fill="#FF3131"/>
</svg>
