<svg width="23" height="22" viewBox="0 0 23 22" fill="none" xmlns="http://www.w3.org/2000/svg">
<circle cx="11.514" cy="11.0975" r="10.764" fill="white"/>
<circle cx="11.514" cy="11.0975" r="10.264" stroke="black" stroke-opacity="0.15"/>
<path d="M14.4086 8.13436L15.6409 9.36611L14.4086 8.13436ZM15.2011 7.04923L11.8689 10.3814C11.6967 10.5533 11.5793 10.7724 11.5314 11.011L11.2236 12.5517L12.7643 12.2433C13.0029 12.1956 13.2217 12.0786 13.3939 11.9064L16.7261 8.57423C16.8262 8.4741 16.9056 8.35522 16.9598 8.22439C17.014 8.09356 17.0419 7.95334 17.0419 7.81173C17.0419 7.67012 17.014 7.5299 16.9598 7.39907C16.9056 7.26824 16.8262 7.14937 16.7261 7.04923C16.6259 6.9491 16.5071 6.86967 16.3762 6.81548C16.2454 6.76129 16.1052 6.7334 15.9636 6.7334C15.822 6.7334 15.6817 6.76129 15.5509 6.81548C15.4201 6.86967 15.3012 6.9491 15.2011 7.04923V7.04923Z" stroke="#202020" strokeWidth="2" strokeLinecap="round" strokeLinejoin="round"/>
<path d="M15.8779 13.7153V15.4608C15.8779 15.7695 15.7553 16.0655 15.5371 16.2837C15.3189 16.5019 15.0229 16.6245 14.7143 16.6245H8.31406C8.00544 16.6245 7.70945 16.5019 7.49122 16.2837C7.27299 16.0655 7.15039 15.7695 7.15039 15.4608V9.06065C7.15039 8.75202 7.27299 8.45604 7.49122 8.2378C7.70945 8.01957 8.00544 7.89697 8.31406 7.89697H10.0596" stroke="#202020" strokeWidth="2" strokeLinecap="round" strokeLinejoin="round"/>
</svg>
